 <svg xmlns:mydata="http://www.w3.org/2000/svg" mydata:contrastcolor="4348bd" mydata:template="Contrast"
        mydata:presentation="2.5" mydata:layouttype="undefined" mydata:specialfontid="undefined" mydata:id1="008"
        mydata:id2="000" mydata:companyname="mmm Health" mydata:companytagline="health on your mobile" version="1.1"
        xmlns="http://www.w3.org/2000/svg" xmlns:xlink="http://www.w3.org/1999/xlink" viewBox="0 50 550 370"
        style="height: 207px;">
        <g fill="#009ace" fill-rule="none" stroke="none" stroke-width="1" stroke-linecap="butt" stroke-linejoin="miter"
            stroke-miterlimit="10" stroke-dasharray="" stroke-dashoffset="0" font-family="none" font-weight="none"
            font-size="none" text-anchor="none" style="mix-blend-mode: normal">
            <g
                data-paper-data="{&quot;isGlobalGroup&quot;:true,&quot;bounds&quot;:{&quot;x&quot;:92.26053447486491,&quot;y&quot;:115.00000000000001,&quot;width&quot;:365.47893105027015,&quot;height&quot;:240}}">
                <g data-paper-data="{&quot;isSecondaryText&quot;:true}" fill-rule="nonzero" id="element-id-75793">
                    <path
                        d="M103.87924,354.8105v-11.1122h1.47051v4.56313h5.77592v-4.56313h1.47051v11.1122h-1.47051v-5.23774h-5.77592v5.23774z"
                        data-paper-data="{&quot;glyphName&quot;:&quot;H&quot;,&quot;glyphIndex&quot;:0,&quot;firstGlyphOfWord&quot;:true,&quot;word&quot;:1}"
                        fill="#009ace" id="element-id-36617"></path>
                    <path
                        d="M122.79789,354.8105v-11.1122h8.03474v1.31133h-6.56423v3.4034h6.14734v1.30375h-6.14734v3.78239h6.82195v1.31133z"
                        data-paper-data="{&quot;glyphName&quot;:&quot;E&quot;,&quot;glyphIndex&quot;:1,&quot;word&quot;:1}"
                        fill="#009ace" id="element-id-31573"></path>
                    <path
                        d="M139.36361,354.8105l4.26751,-11.1122h1.58421l4.54797,11.1122h-1.67517l-1.29617,-3.3655h-4.64651l-1.22037,3.3655zM142.56993,350.24737h3.76723l-1.15973,-3.07746c-0.35373,-0.93486 -0.6165,-1.70296 -0.78831,-2.3043c-0.14149,0.71251 -0.3411,1.41998 -0.59882,2.12238z"
                        data-paper-data="{&quot;glyphName&quot;:&quot;A&quot;,&quot;glyphIndex&quot;:2,&quot;word&quot;:1}"
                        fill="#009ace" id="element-id-41478"></path>
                    <path d="M158.22249,354.8105v-11.1122h1.47051v9.80087h5.47272v1.31133z"
                        data-paper-data="{&quot;glyphName&quot;:&quot;L&quot;,&quot;glyphIndex&quot;:3,&quot;word&quot;:1}"
                        fill="#009ace" id="element-id-93987"></path>
                    <path d="M175.2595,354.8105v-9.80087h-3.66111v-1.31133h8.8079v1.31133h-3.67627v9.80087z"
                        data-paper-data="{&quot;glyphName&quot;:&quot;T&quot;,&quot;glyphIndex&quot;:4,&quot;word&quot;:1}"
                        fill="#009ace" id="element-id-42841"></path>
                    <path
                        d="M189.47264,354.8105v-11.1122h1.47051v4.56313h5.77592v-4.56313h1.47051v11.1122h-1.47051v-5.23774h-5.77592v5.23774z"
                        data-paper-data="{&quot;glyphName&quot;:&quot;H&quot;,&quot;glyphIndex&quot;:5,&quot;lastGlyphOfWord&quot;:true,&quot;word&quot;:1}"
                        fill="#009ace" id="element-id-63164"></path>
                    <path
                        d="M218.06154,349.39842c0,-1.84445 0.49522,-3.28843 1.48567,-4.33194c0.99045,-1.04351 2.26893,-1.56526 3.83545,-1.56526c1.02582,0 1.95057,0.24508 2.77426,0.73525c0.82369,0.49017 1.45156,1.17363 1.88362,2.05038c0.43206,0.87675 0.64809,1.87098 0.64809,2.98271c0,1.12689 -0.2274,2.13502 -0.6822,3.0244c-0.4548,0.88938 -1.09909,1.56273 -1.93289,2.02006c-0.83379,0.45732 -1.73328,0.68599 -2.69846,0.68599c-1.04603,0 -1.98089,-0.25266 -2.80458,-0.75799c-0.82369,-0.50533 -1.44777,-1.1951 -1.87225,-2.06933c-0.42448,-0.87422 -0.63672,-1.79897 -0.63672,-2.77426zM219.57753,349.42116c0,1.33912 0.36005,2.394 1.08014,3.16463c0.72009,0.77063 1.62337,1.15594 2.70983,1.15594c1.10667,0 2.01753,-0.3891 2.73257,-1.16731c0.71504,-0.77821 1.07256,-1.88235 1.07256,-3.31244c0,-0.90454 -0.15286,-1.69412 -0.45859,-2.36873c-0.30572,-0.67462 -0.75294,-1.19763 -1.34165,-1.56905c-0.58871,-0.37142 -1.24943,-0.55713 -1.98216,-0.55713c-1.04098,0 -1.93668,0.35752 -2.68709,1.07256c-0.75041,0.71504 -1.12562,1.90888 -1.12562,3.58152z"
                        data-paper-data="{&quot;glyphName&quot;:&quot;O&quot;,&quot;glyphIndex&quot;:6,&quot;firstGlyphOfWord&quot;:true,&quot;word&quot;:2}"
                        fill="#009ace" id="element-id-24559"></path>
                    <path
                        d="M238.477,354.8105v-11.1122h1.50841l5.83656,8.72452v-8.72452h1.40987v11.1122h-1.50841l-5.83656,-8.7321v8.7321z"
                        data-paper-data="{&quot;glyphName&quot;:&quot;N&quot;,&quot;glyphIndex&quot;:7,&quot;lastGlyphOfWord&quot;:true,&quot;word&quot;:2}"
                        fill="#009ace" id="element-id-95241"></path>
                    <path
                        d="M270.05645,354.8105v-4.70715l-4.28267,-6.40505h1.78887l2.1906,3.35034c0.40426,0.62661 0.78073,1.25322 1.12941,1.87983c0.33352,-0.58113 0.73778,-1.23553 1.21279,-1.96321l2.1527,-3.26696h1.71307l-4.43427,6.40505v4.70715z"
                        data-paper-data="{&quot;glyphName&quot;:&quot;Y&quot;,&quot;glyphIndex&quot;:8,&quot;firstGlyphOfWord&quot;:true,&quot;word&quot;:3}"
                        fill="#009ace" id="element-id-4354"></path>
                    <path
                        d="M284.64934,349.39842c0,-1.84445 0.49522,-3.28843 1.48567,-4.33194c0.99045,-1.04351 2.26893,-1.56526 3.83545,-1.56526c1.02582,0 1.95057,0.24508 2.77426,0.73525c0.82369,0.49017 1.45156,1.17363 1.88362,2.05038c0.43206,0.87675 0.64809,1.87098 0.64809,2.98271c0,1.12689 -0.2274,2.13502 -0.6822,3.0244c-0.4548,0.88938 -1.09909,1.56273 -1.93289,2.02006c-0.83379,0.45732 -1.73328,0.68599 -2.69846,0.68599c-1.04603,0 -1.98089,-0.25266 -2.80458,-0.75799c-0.82369,-0.50533 -1.44777,-1.1951 -1.87225,-2.06933c-0.42448,-0.87422 -0.63672,-1.79897 -0.63672,-2.77426zM286.16532,349.42116c0,1.33912 0.36005,2.394 1.08014,3.16463c0.72009,0.77063 1.62337,1.15594 2.70983,1.15594c1.10667,0 2.01753,-0.3891 2.73257,-1.16731c0.71504,-0.77821 1.07256,-1.88235 1.07256,-3.31244c0,-0.90454 -0.15286,-1.69412 -0.45859,-2.36873c-0.30572,-0.67462 -0.75294,-1.19763 -1.34165,-1.56905c-0.58871,-0.37142 -1.24943,-0.55713 -1.98216,-0.55713c-1.04098,0 -1.93668,0.35752 -2.68709,1.07256c-0.75041,0.71504 -1.12562,1.90888 -1.12562,3.58152z"
                        data-paper-data="{&quot;glyphName&quot;:&quot;O&quot;,&quot;glyphIndex&quot;:9,&quot;word&quot;:3}"
                        fill="#009ace" id="element-id-11470"></path>
                    <path
                        d="M312.38144,343.6983h1.47051v6.42021c0,1.11678 -0.12633,2.00363 -0.379,2.66056c-0.25266,0.65693 -0.70872,1.19131 -1.36818,1.60316c-0.65946,0.41184 -1.52483,0.61777 -2.59613,0.61777c-1.04098,0 -1.89246,-0.17939 -2.55444,-0.53818c-0.66198,-0.35878 -1.13447,-0.87801 -1.41745,-1.55768c-0.28298,-0.67967 -0.42448,-1.60821 -0.42448,-2.78563v-6.42021h1.47051v6.41263c0,0.96518 0.0897,1.67643 0.26909,2.13375c0.17939,0.45732 0.48764,0.80979 0.92475,1.0574c0.43711,0.24761 0.9715,0.37142 1.60316,0.37142c1.08141,0 1.85203,-0.24508 2.31188,-0.73525c0.45985,-0.49017 0.68978,-1.43261 0.68978,-2.82732z"
                        data-paper-data="{&quot;glyphName&quot;:&quot;U&quot;,&quot;glyphIndex&quot;:10,&quot;word&quot;:3}"
                        fill="#009ace" id="element-id-10815"></path>
                    <path
                        d="M324.28422,354.8105v-11.1122h4.92696c0.99045,0 1.74339,0.0998 2.25882,0.29941c0.51544,0.19961 0.92728,0.55207 1.23553,1.0574c0.30825,0.50533 0.46238,1.06372 0.46238,1.67517c0,0.78831 -0.25519,1.45282 -0.76557,1.99353c-0.51038,0.5407 -1.2987,0.88433 -2.36494,1.03087c0.3891,0.18697 0.68472,0.37142 0.88685,0.55334c0.42953,0.39416 0.83632,0.88685 1.22037,1.47809l1.93289,3.0244h-1.84951l-1.47051,-2.31188c-0.42953,-0.66704 -0.78326,-1.17742 -1.06119,-1.53115c-0.27793,-0.35373 -0.52681,-0.60134 -0.74662,-0.74283c-0.21982,-0.14149 -0.44343,-0.24003 -0.67083,-0.29562c-0.16676,-0.03537 -0.43964,-0.05306 -0.81863,-0.05306h-1.70549v4.93454zM325.75473,348.60253h3.16084c0.67209,0 1.19763,-0.06948 1.57663,-0.20845c0.379,-0.13897 0.66704,-0.36131 0.86411,-0.66704c0.19708,-0.30572 0.29562,-0.63798 0.29562,-0.99676c0,-0.52554 -0.19076,-0.9576 -0.57229,-1.29617c-0.38152,-0.33857 -0.98413,-0.50786 -1.80782,-0.50786h-3.51709z"
                        data-paper-data="{&quot;glyphName&quot;:&quot;R&quot;,&quot;glyphIndex&quot;:11,&quot;lastGlyphOfWord&quot;:true,&quot;word&quot;:3}"
                        fill="#009ace" id="element-id-62564"></path>
                    <path
                        d="M353.2581,354.8105v-11.1122h2.21334l2.63024,7.86798c0.24256,0.73273 0.41942,1.28101 0.5306,1.64485c0.12633,-0.40426 0.32341,-0.99803 0.59124,-1.78129l2.66056,-7.73154h1.97837v11.1122h-1.41745v-9.30059l-3.22906,9.30059h-1.32649l-3.2139,-9.45977v9.45977z"
                        data-paper-data="{&quot;glyphName&quot;:&quot;M&quot;,&quot;glyphIndex&quot;:12,&quot;firstGlyphOfWord&quot;:true,&quot;word&quot;:4}"
                        fill="#009ace" id="element-id-69608"></path>
                    <path
                        d="M374.00264,349.39842c0,-1.84445 0.49522,-3.28843 1.48567,-4.33194c0.99045,-1.04351 2.26893,-1.56526 3.83545,-1.56526c1.02582,0 1.95057,0.24508 2.77426,0.73525c0.82369,0.49017 1.45156,1.17363 1.88362,2.05038c0.43206,0.87675 0.64809,1.87098 0.64809,2.98271c0,1.12689 -0.2274,2.13502 -0.6822,3.0244c-0.4548,0.88938 -1.09909,1.56273 -1.93289,2.02006c-0.83379,0.45732 -1.73328,0.68599 -2.69846,0.68599c-1.04603,0 -1.98089,-0.25266 -2.80458,-0.75799c-0.82369,-0.50533 -1.44777,-1.1951 -1.87225,-2.06933c-0.42448,-0.87422 -0.63672,-1.79897 -0.63672,-2.77426zM375.51863,349.42116c0,1.33912 0.36005,2.394 1.08014,3.16463c0.72009,0.77063 1.62337,1.15594 2.70983,1.15594c1.10667,0 2.01753,-0.3891 2.73257,-1.16731c0.71504,-0.77821 1.07256,-1.88235 1.07256,-3.31244c0,-0.90454 -0.15286,-1.69412 -0.45859,-2.36873c-0.30572,-0.67462 -0.75294,-1.19763 -1.34165,-1.56905c-0.58871,-0.37142 -1.24943,-0.55713 -1.98216,-0.55713c-1.04098,0 -1.93668,0.35752 -2.68709,1.07256c-0.75041,0.71504 -1.12562,1.90888 -1.12562,3.58152z"
                        data-paper-data="{&quot;glyphName&quot;:&quot;O&quot;,&quot;glyphIndex&quot;:13,&quot;word&quot;:4}"
                        fill="#009ace" id="element-id-83407"></path>
                    <path
                        d="M394.30083,354.8105v-11.1122h4.16897c0.84895,0 1.52989,0.11244 2.0428,0.33731c0.51291,0.22487 0.91465,0.57102 1.20521,1.03845c0.29056,0.46743 0.43585,0.95634 0.43585,1.46672c0,0.47501 -0.12886,0.92223 -0.38658,1.34165c-0.25772,0.41942 -0.64682,0.75799 -1.16731,1.01571c0.67209,0.19708 1.18879,0.53312 1.5501,1.00813c0.36131,0.47501 0.54197,1.03593 0.54197,1.68275c0,0.52049 -0.10991,1.00434 -0.32973,1.45156c-0.21982,0.44722 -0.49143,0.7921 -0.81484,1.03466c-0.32341,0.24256 -0.72894,0.42574 -1.21658,0.54955c-0.48764,0.12381 -1.0852,0.18571 -1.79266,0.18571zM395.77134,348.36755h2.40284c0.65188,0 1.11931,-0.04295 1.40229,-0.12886c0.37394,-0.11117 0.65567,-0.29562 0.84516,-0.55334c0.1895,-0.25772 0.28425,-0.58113 0.28425,-0.97023c0,-0.36889 -0.08843,-0.69357 -0.2653,-0.97402c-0.17687,-0.28046 -0.42953,-0.47248 -0.75799,-0.57608c-0.32846,-0.10359 -0.89191,-0.15539 -1.69033,-0.15539h-2.22092zM395.77134,353.49917h2.76668c0.47501,0 0.80853,-0.01769 1.00055,-0.05306c0.33857,-0.06064 0.62156,-0.16171 0.84895,-0.3032c0.2274,-0.14149 0.41437,-0.34741 0.56092,-0.61777c0.14655,-0.27035 0.21982,-0.58239 0.21982,-0.93612c0,-0.41437 -0.10612,-0.77442 -0.31836,-1.08014c-0.21224,-0.30572 -0.50659,-0.52049 -0.88306,-0.6443c-0.37647,-0.12381 -0.91844,-0.18571 -1.6259,-0.18571h-2.5696z"
                        data-paper-data="{&quot;glyphName&quot;:&quot;B&quot;,&quot;glyphIndex&quot;:14,&quot;word&quot;:4}"
                        fill="#009ace" id="element-id-20403"></path>
                    <path d="M411.49584,354.8105v-11.1122h1.47051v11.1122z"
                        data-paper-data="{&quot;glyphName&quot;:&quot;I&quot;,&quot;glyphIndex&quot;:15,&quot;word&quot;:4}"
                        fill="#009ace" id="element-id-2903"></path>
                    <path d="M421.8809,354.8105v-11.1122h1.47051v9.80087h5.47272v1.31133z"
                        data-paper-data="{&quot;glyphName&quot;:&quot;L&quot;,&quot;glyphIndex&quot;:16,&quot;word&quot;:4}"
                        fill="#009ace" id="element-id-49511"></path>
                    <path
                        d="M437.8283,354.8105v-11.1122h8.03474v1.31133h-6.56423v3.4034h6.14734v1.30375h-6.14734v3.78239h6.82195v1.31133z"
                        data-paper-data="{&quot;glyphName&quot;:&quot;E&quot;,&quot;glyphIndex&quot;:17,&quot;lastGlyphOfWord&quot;:true,&quot;word&quot;:4}"
                        fill="#009ace" id="element-id-98038"></path>
                </g>
                <g data-paper-data="{&quot;isPrimaryText&quot;:true}" fill-rule="nonzero" id="element-id-99779">
                    <path
                        d="M92.26053,330.02556v-38.40448c0,-0.40581 0.07378,-0.78856 0.22135,-1.14826c0.14757,-0.3597 0.35508,-0.67328 0.62255,-0.94074c0.26747,-0.26747 0.57644,-0.47498 0.92691,-0.62255c0.35047,-0.14757 0.73784,-0.22135 1.1621,-0.22135c1.14365,0 2.01061,0.52571 2.60088,1.57713l16.60136,33.17505l16.60136,-33.17505c0.66405,-1.05142 1.53101,-1.57713 2.60088,-1.57713c0.40581,0 0.78856,0.07378 1.14826,0.22135c0.3597,0.14757 0.67328,0.35508 0.94074,0.62255c0.26747,0.26747 0.47498,0.58105 0.62255,0.94074c0.14757,0.3597 0.22135,0.74245 0.22135,1.14826v38.40448c0,0.81162 -0.28591,1.50335 -0.85774,2.07517c-0.57182,0.57182 -1.26355,0.85774 -2.07517,0.85774c-0.81162,0 -1.50335,-0.28591 -2.07517,-0.85774c-0.57182,-0.57182 -0.85774,-1.26355 -0.85774,-2.07517v-25.95346l-13.72379,27.41991c-0.57182,0.97764 -1.42034,1.46645 -2.54554,1.46645c-1.21743,0 -2.11206,-0.59027 -2.68389,-1.77081l-13.58545,-27.11555v25.95346c0,0.81162 -0.28591,1.50335 -0.85774,2.07517c-0.57182,0.57182 -1.26355,0.85774 -2.07517,0.85774c-0.81162,0 -1.50335,-0.28591 -2.07517,-0.85774c-0.57182,-0.57182 -0.85774,-1.26355 -0.85774,-2.07517z"
                        data-paper-data="{&quot;glyphName&quot;:&quot;M&quot;,&quot;glyphIndex&quot;:0,&quot;firstGlyphOfWord&quot;:true,&quot;word&quot;:1}"
                        fill="#009ace" id="element-id-98448"></path>
                    <path
                        d="M140.95786,330.02556v-38.40448c0,-0.40581 0.07378,-0.78856 0.22135,-1.14826c0.14757,-0.3597 0.35508,-0.67328 0.62255,-0.94074c0.26747,-0.26747 0.57644,-0.47498 0.92691,-0.62255c0.35047,-0.14757 0.73784,-0.22135 1.1621,-0.22135c1.14365,0 2.01061,0.52571 2.60088,1.57713l16.60136,33.17505l16.60136,-33.17505c0.66405,-1.05142 1.53101,-1.57713 2.60088,-1.57713c0.40581,0 0.78856,0.07378 1.14826,0.22135c0.3597,0.14757 0.67328,0.35508 0.94074,0.62255c0.26747,0.26747 0.47498,0.58105 0.62255,0.94074c0.14757,0.3597 0.22135,0.74245 0.22135,1.14826v38.40448c0,0.81162 -0.28591,1.50335 -0.85774,2.07517c-0.57182,0.57182 -1.26355,0.85774 -2.07517,0.85774c-0.81162,0 -1.50335,-0.28591 -2.07517,-0.85774c-0.57182,-0.57182 -0.85774,-1.26355 -0.85774,-2.07517v-25.95346l-13.72379,27.41991c-0.57182,0.97764 -1.42034,1.46645 -2.54554,1.46645c-1.21743,0 -2.11206,-0.59027 -2.68389,-1.77081l-13.58545,-27.11555v25.95346c0,0.81162 -0.28591,1.50335 -0.85774,2.07517c-0.57182,0.57182 -1.26355,0.85774 -2.07517,0.85774c-0.81162,0 -1.50335,-0.28591 -2.07517,-0.85774c-0.57182,-0.57182 -0.85774,-1.26355 -0.85774,-2.07517z"
                        data-paper-data="{&quot;glyphName&quot;:&quot;M&quot;,&quot;glyphIndex&quot;:1,&quot;word&quot;:1}"
                        fill="#009ace" id="element-id-93082"></path>
                    <path
                        d="M189.65518,330.02556v-38.40448c0,-0.40581 0.07378,-0.78856 0.22135,-1.14826c0.14757,-0.3597 0.35508,-0.67328 0.62255,-0.94074c0.26747,-0.26747 0.57644,-0.47498 0.92691,-0.62255c0.35047,-0.14757 0.73784,-0.22135 1.1621,-0.22135c1.14365,0 2.01061,0.52571 2.60088,1.57713l16.60136,33.17505l16.60136,-33.17505c0.66405,-1.05142 1.53101,-1.57713 2.60088,-1.57713c0.40581,0 0.78856,0.07378 1.14826,0.22135c0.3597,0.14757 0.67328,0.35508 0.94074,0.62255c0.26747,0.26747 0.47498,0.58105 0.62255,0.94074c0.14757,0.3597 0.22135,0.74245 0.22135,1.14826v38.40448c0,0.81162 -0.28591,1.50335 -0.85774,2.07517c-0.57182,0.57182 -1.26355,0.85774 -2.07517,0.85774c-0.81162,0 -1.50335,-0.28591 -2.07517,-0.85774c-0.57182,-0.57182 -0.85774,-1.26355 -0.85774,-2.07517v-25.95346l-13.72379,27.41991c-0.57182,0.97764 -1.42034,1.46645 -2.54554,1.46645c-1.21743,0 -2.11206,-0.59027 -2.68389,-1.77081l-13.58545,-27.11555v25.95346c0,0.81162 -0.28591,1.50335 -0.85774,2.07517c-0.57182,0.57182 -1.26355,0.85774 -2.07517,0.85774c-0.81162,0 -1.50335,-0.28591 -2.07517,-0.85774c-0.57182,-0.57182 -0.85774,-1.26355 -0.85774,-2.07517z"
                        data-paper-data="{&quot;glyphName&quot;:&quot;M&quot;,&quot;glyphIndex&quot;:2,&quot;lastGlyphOfWord&quot;:true,&quot;word&quot;:1}"
                        fill="#009ace" id="element-id-60083"></path>
                    <path
                        d="M286.30276,330.02556c0,0.81162 -0.28591,1.50335 -0.85774,2.07517c-0.57182,0.57182 -1.26355,0.85774 -2.07517,0.85774c-0.81162,0 -1.50335,-0.28591 -2.07517,-0.85774c-0.57182,-0.57182 -0.85774,-1.26355 -0.85774,-2.07517v-16.26933h-19.72795v16.26933c0,0.81162 -0.28591,1.50335 -0.85774,2.07517c-0.57182,0.57182 -1.26355,0.85774 -2.07517,0.85774c-0.81162,0 -1.50335,-0.28591 -2.07517,-0.85774c-0.57182,-0.57182 -0.85774,-1.26355 -0.85774,-2.07517v-38.40448c0,-0.81162 0.28591,-1.50335 0.85774,-2.07517c0.57182,-0.57182 1.26355,-0.85774 2.07517,-0.85774c0.81162,0 1.50335,0.28591 2.07517,0.85774c0.57182,0.57182 0.85774,1.26355 0.85774,2.07517v16.26933h19.72795v-16.26933c0,-0.81162 0.28591,-1.50335 0.85774,-2.07517c0.57182,-0.57182 1.26355,-0.85774 2.07517,-0.85774c0.81162,0 1.50335,0.28591 2.07517,0.85774c0.57182,0.57182 0.85774,1.26355 0.85774,2.07517z"
                        data-paper-data="{&quot;glyphName&quot;:&quot;H&quot;,&quot;glyphIndex&quot;:3,&quot;firstGlyphOfWord&quot;:true,&quot;word&quot;:2}"
                        fill="#009ace" id="element-id-81512"></path>
                    <path
                        d="M318.78609,288.68817c0.40581,0 0.78856,0.07378 1.14826,0.22135c0.3597,0.14757 0.67328,0.35508 0.94074,0.62255c0.26747,0.26747 0.47498,0.58105 0.62255,0.94074c0.14757,0.3597 0.22135,0.74245 0.22135,1.14826c0,0.42426 -0.07378,0.81162 -0.22135,1.1621c-0.14757,0.35047 -0.35508,0.65944 -0.62255,0.92691c-0.26747,0.26747 -0.58105,0.47498 -0.94074,0.62255c-0.3597,0.14757 -0.74245,0.22135 -1.14826,0.22135h-25.59376c-0.42426,0 -0.81162,-0.07378 -1.1621,-0.22135c-0.35047,-0.14757 -0.65944,-0.35508 -0.92691,-0.62255c-0.26747,-0.26747 -0.47498,-0.57644 -0.62255,-0.92691c-0.14757,-0.35047 -0.22135,-0.73784 -0.22135,-1.1621c0,-0.40581 0.07378,-0.78856 0.22135,-1.14826c0.14757,-0.3597 0.35508,-0.67328 0.62255,-0.94074c0.26747,-0.26747 0.57644,-0.47498 0.92691,-0.62255c0.35047,-0.14757 0.73784,-0.22135 1.1621,-0.22135zM318.78609,327.09265c0.40581,0 0.78856,0.07378 1.14826,0.22135c0.3597,0.14757 0.67328,0.35508 0.94074,0.62255c0.26747,0.26747 0.47498,0.58105 0.62255,0.94074c0.14757,0.3597 0.22135,0.74245 0.22135,1.14826c0,0.42426 -0.07378,0.81162 -0.22135,1.1621c-0.14757,0.35047 -0.35508,0.65944 -0.62255,0.92691c-0.26747,0.26747 -0.58105,0.47498 -0.94074,0.62255c-0.3597,0.14757 -0.74245,0.22135 -1.14826,0.22135h-25.59376c-0.42426,0 -0.81162,-0.07378 -1.1621,-0.22135c-0.35047,-0.14757 -0.65944,-0.35508 -0.92691,-0.62255c-0.26747,-0.26747 -0.47498,-0.57644 -0.62255,-0.92691c-0.14757,-0.35047 -0.22135,-0.73784 -0.22135,-1.1621c0,-0.40581 0.07378,-0.78856 0.22135,-1.14826c0.14757,-0.3597 0.35508,-0.67328 0.62255,-0.94074c0.26747,-0.26747 0.57644,-0.47498 0.92691,-0.62255c0.35047,-0.14757 0.73784,-0.22135 1.1621,-0.22135zM316.65558,307.89041c0.40581,0 0.78856,0.07378 1.14826,0.22135c0.3597,0.14757 0.67328,0.35508 0.94074,0.62255c0.26747,0.26747 0.47498,0.58105 0.62255,0.94074c0.14757,0.3597 0.22135,0.74245 0.22135,1.14826c0,0.42426 -0.07378,0.81162 -0.22135,1.1621c-0.14757,0.35047 -0.35508,0.65944 -0.62255,0.92691c-0.26747,0.26747 -0.58105,0.47498 -0.94074,0.62255c-0.3597,0.14757 -0.74245,0.22135 -1.14826,0.22135h-21.36042c-0.6825,-0.01845 -1.33733,-0.30436 -1.96449,-0.85774c-0.59027,-0.53493 -0.88541,-1.22666 -0.88541,-2.07517c0,-0.36892 0.07378,-0.72862 0.22135,-1.07909c0.14757,-0.35047 0.35047,-0.65944 0.60872,-0.92691c0.25824,-0.26747 0.55799,-0.48421 0.89924,-0.65022c0.34125,-0.16601 0.71478,-0.25824 1.12059,-0.27669z"
                        data-paper-data="{&quot;glyphName&quot;:&quot;Ξ&quot;,&quot;glyphIndex&quot;:4,&quot;word&quot;:2}"
                        fill="#009ace" id="element-id-95686"></path>
                    <path
                        d="M331.34778,331.15998c-0.57182,1.19899 -1.47568,1.79848 -2.71156,1.79848c-0.42426,0 -0.81162,-0.07378 -1.1621,-0.22135c-0.35047,-0.14757 -0.65944,-0.35508 -0.92691,-0.62255c-0.26747,-0.26747 -0.47498,-0.57644 -0.62255,-0.92691c-0.14757,-0.35047 -0.22135,-0.73784 -0.22135,-1.1621c0,-0.38737 0.08301,-0.78395 0.24902,-1.18976l14.83055,-38.10012c0.59027,-1.365 1.52179,-2.0475 2.79456,-2.0475c1.27277,0 2.20429,0.6825 2.79456,2.0475l14.83055,38.10012c0.16601,0.38737 0.24902,0.78395 0.24902,1.18976c0,0.42426 -0.07378,0.81162 -0.22135,1.1621c-0.14757,0.35047 -0.35508,0.65944 -0.62255,0.92691c-0.26747,0.26747 -0.58105,0.47498 -0.94074,0.62255c-0.3597,0.14757 -0.74245,0.22135 -1.14826,0.22135c-1.29122,0 -2.20429,-0.59949 -2.73922,-1.79848l-12.202,-31.43191z"
                        data-paper-data="{&quot;glyphName&quot;:&quot;Λ&quot;,&quot;glyphIndex&quot;:5,&quot;word&quot;:2}"
                        fill="#009ace" id="element-id-96900"></path>
                    <path
                        d="M365.49124,291.62108c0,-0.81162 0.28591,-1.50335 0.85774,-2.07517c0.57182,-0.57182 1.26355,-0.85774 2.07517,-0.85774c0.81162,0 1.50335,0.28591 2.07517,0.85774c0.57182,0.57182 0.85774,1.26355 0.85774,2.07517v35.47157h20.53035c0.81162,0 1.50335,0.28591 2.07517,0.85774c0.57182,0.57182 0.85774,1.26355 0.85774,2.07517c0,0.81162 -0.28591,1.50335 -0.85774,2.07517c-0.57182,0.57182 -1.26355,0.85774 -2.07517,0.85774h-23.46325c-0.42426,0 -0.81162,-0.07378 -1.1621,-0.22135c-0.35047,-0.14757 -0.65944,-0.35508 -0.92691,-0.62255c-0.26747,-0.26747 -0.47498,-0.57644 -0.62255,-0.92691c-0.14757,-0.35047 -0.22135,-0.73784 -0.22135,-1.1621z"
                        data-paper-data="{&quot;glyphName&quot;:&quot;L&quot;,&quot;glyphIndex&quot;:6,&quot;word&quot;:2}"
                        fill="#009ace" id="element-id-25069"></path>
                    <path
                        d="M419.33499,294.55399h-10.92923v35.47157c0,0.81162 -0.28591,1.50335 -0.85774,2.07517c-0.57182,0.57182 -1.26355,0.85774 -2.07517,0.85774c-0.81162,0 -1.50335,-0.28591 -2.07517,-0.85774c-0.57182,-0.57182 -0.85774,-1.26355 -0.85774,-2.07517v-35.47157h-10.92923c-0.81162,0 -1.50335,-0.28591 -2.07517,-0.85774c-0.57182,-0.57182 -0.85774,-1.26355 -0.85774,-2.07517c0,-0.81162 0.28591,-1.50335 0.85774,-2.07517c0.57182,-0.57182 1.26355,-0.85774 2.07517,-0.85774h27.72427c0.81162,0 1.50335,0.28591 2.07517,0.85774c0.57182,0.57182 0.85774,1.26355 0.85774,2.07517c0,0.81162 -0.28591,1.50335 -0.85774,2.07517c-0.57182,0.57182 -1.26355,0.85774 -2.07517,0.85774z"
                        data-paper-data="{&quot;glyphName&quot;:&quot;T&quot;,&quot;glyphIndex&quot;:7,&quot;word&quot;:2}"
                        fill="#009ace" id="element-id-74312"></path>
                    <path
                        d="M457.73947,330.02556c0,0.81162 -0.28591,1.50335 -0.85774,2.07517c-0.57182,0.57182 -1.26355,0.85774 -2.07517,0.85774c-0.81162,0 -1.50335,-0.28591 -2.07517,-0.85774c-0.57182,-0.57182 -0.85774,-1.26355 -0.85774,-2.07517v-16.26933h-19.72795v16.26933c0,0.81162 -0.28591,1.50335 -0.85774,2.07517c-0.57182,0.57182 -1.26355,0.85774 -2.07517,0.85774c-0.81162,0 -1.50335,-0.28591 -2.07517,-0.85774c-0.57182,-0.57182 -0.85774,-1.26355 -0.85774,-2.07517v-38.40448c0,-0.81162 0.28591,-1.50335 0.85774,-2.07517c0.57182,-0.57182 1.26355,-0.85774 2.07517,-0.85774c0.81162,0 1.50335,0.28591 2.07517,0.85774c0.57182,0.57182 0.85774,1.26355 0.85774,2.07517v16.26933h19.72795v-16.26933c0,-0.81162 0.28591,-1.50335 0.85774,-2.07517c0.57182,-0.57182 1.26355,-0.85774 2.07517,-0.85774c0.81162,0 1.50335,0.28591 2.07517,0.85774c0.57182,0.57182 0.85774,1.26355 0.85774,2.07517z"
                        data-paper-data="{&quot;glyphName&quot;:&quot;H&quot;,&quot;glyphIndex&quot;:8,&quot;lastGlyphOfWord&quot;:true,&quot;word&quot;:2}"
                        fill="#009ace" id="element-id-6073"></path>
                </g>
                <g data-paper-data="{&quot;fillRule&quot;:&quot;evenodd&quot;,&quot;fillRuleOriginal&quot;:&quot;evenodd&quot;,&quot;isIcon&quot;:true,&quot;iconStyle&quot;:&quot;standalone&quot;,&quot;selectedEffects&quot;:{&quot;container&quot;:&quot;&quot;,&quot;transformation&quot;:&quot;&quot;,&quot;pattern&quot;:&quot;&quot;},&quot;bounds&quot;:{&quot;x&quot;:201.7460628756961,&quot;y&quot;:115.00000000000001,&quot;width&quot;:146.50787424860778,&quot;height&quot;:145.25880828207102},&quot;iconType&quot;:&quot;initial&quot;,&quot;initialText&quot;:&quot;MH&quot;,&quot;rawInitialId&quot;:552,&quot;disableIconEffects&quot;:&quot;true&quot;,&quot;monogramSpecial&quot;:&quot;half-moon&quot;,&quot;suitableAsStandaloneIcon&quot;:true}"
                    fill-rule="evenodd" id="element-id-72095">
                    <path
                        d="M201.74606,187.62932c0,-40.11201 32.51727,-72.62932 72.6294,-72.62932c16.91603,0 32.48129,5.78304 44.82675,15.48005c-9.40145,-5.23491 -20.22919,-8.21707 -31.75343,-8.21707c-36.10093,0 -65.36662,29.26555 -65.36662,65.36635c0,36.10095 29.26568,65.3667 65.36662,65.3667c11.52423,0 22.35198,-2.98235 31.75343,-8.21726c-12.34546,9.69701 -27.91072,15.48005 -44.82675,15.48005c-40.11214,0 -72.6294,-32.51732 -72.6294,-72.62948zM348.25394,187.62932c0,32.08974 -26.01378,58.10372 -58.10344,58.10372c-13.53294,0 -25.98512,-4.62654 -35.86154,-12.38419c7.52122,4.18804 16.18338,6.57385 25.40277,6.57385c28.88089,0 52.29329,-23.4126 52.29329,-52.29337c0,-28.88062 -23.4124,-52.29303 -52.29329,-52.29303c-9.21939,0 -17.88154,2.38581 -25.40277,6.57366c9.87642,-7.75765 22.3286,-12.384 35.86154,-12.384c32.08967,0 58.10344,26.01378 58.10344,58.10337zM252.97211,175.21945c0.28371,-0.05675 0.55607,-0.07941 0.8398,-0.07941h0.09078c1.16893,0 2.22435,0.47666 3.1436,1.41855c0.35181,0.37459 0.62418,0.74917 0.81712,1.1009c0.23832,0.3631 0.69227,1.30505 1.36184,2.82586c0.0227,0.03408 0.73767,1.55475 2.15631,4.58485h0.01124c1.45263,-3.0982 2.47413,-5.2885 3.05285,-6.54822c0.23836,-0.52205 0.5334,-1.02137 0.88514,-1.49796c0.65833,-0.86247 1.46406,-1.4414 2.41738,-1.72515c0.38582,-0.10207 0.74898,-0.15882 1.10071,-0.15882h0.12493c0.86254,0 1.69099,0.26102 2.48536,0.78307c0.37459,0.28375 0.62424,0.5334 0.76041,0.76041c-0.79449,-0.51074 -1.64554,-0.77164 -2.56477,-0.77164c-1.22583,0 -2.30388,0.46523 -3.23454,1.40712c-0.32907,0.38582 -0.5673,0.70366 -0.69223,0.95332c-0.09084,0.14759 -0.24966,0.47666 -0.48789,0.99864c-1.4414,3.05285 -2.38329,5.06158 -2.82586,6.04893c-0.03408,0.05674 -0.37459,0.7717 -1.0215,2.1449h-0.01124l-2.76915,-5.90134c-0.77169,-1.63415 -1.24835,-2.64422 -1.41858,-3.04147c-0.17023,-0.35173 -0.41989,-0.71489 -0.72632,-1.06682c-0.32911,-0.35173 -0.56744,-0.57873 -0.70362,-0.65814c-0.79442,-0.59016 -1.67961,-0.88514 -2.66694,-0.88514c-0.89654,0 -1.74771,0.26089 -2.54211,0.77164v-0.01142c0.06808,-0.12473 0.22698,-0.29498 0.48799,-0.5334c0.51069,-0.44257 1.14622,-0.74898 1.92929,-0.91923zM286.81389,175.66202c0.64691,-0.29498 1.28239,-0.44257 1.89521,-0.44257h0.12493c1.06682,0 2.04279,0.37459 2.93936,1.11233c0.35173,0.32907 0.5673,0.55607 0.65814,0.70346c0.59022,0.82845 0.88533,1.72502 0.88533,2.6897v3.77913c2.48536,0.01133 4.33505,0.01133 5.57211,0.01133v-3.75638c0,-1.27115 0.47666,-2.37186 1.41855,-3.31394c0.48808,-0.44257 1.01006,-0.77164 1.57756,-0.96455c0.49932,-0.17025 0.98721,-0.26109 1.4753,-0.26109h0.12493c1.2483,0 2.30368,0.43134 3.15493,1.29381c0.21557,0.23823 0.38582,0.44257 0.51056,0.63548c0.5334,0.87391 0.79449,1.79313 0.79449,2.78054v0.12473c0,1.01009 -0.27232,1.94068 -0.82839,2.79183c-0.47666,0.69227 -1.12356,1.19162 -1.92929,1.47534c-0.44276,0.14753 -0.87391,0.22698 -1.29381,0.22698h-14.63984c-2.38322,0 -3.97202,0.20427 -4.76638,0.61282c-0.14759,0.07945 -0.23843,0.12485 -0.24966,0.12485v-5.44738c0,-1.46406 0.5673,-2.66704 1.69086,-3.62016c0.32907,-0.24985 0.62424,-0.43134 0.88514,-0.55626zM285.76993,177.96589c-0.32927,0.57873 -0.48808,1.14622 -0.48808,1.71372v4.68696h0.01142c0.26089,-0.14753 0.57873,-0.27238 0.93046,-0.37451c0.01142,-0.01135 0.01142,-0.01135 0.02286,-0.01135v-4.17637c0,-0.91923 0.39705,-1.65697 1.19155,-2.20162c0.43134,-0.24966 0.88514,-0.37459 1.35057,-0.37459c0.63548,0 1.20298,0.227 1.71353,0.681c0.26109,0.24966 0.43134,0.47666 0.5334,0.69223c0.18168,0.37459 0.27232,0.72632 0.27232,1.07824v3.82446h0.97617v-3.88121c0,-0.60158 -0.19311,-1.2144 -0.59016,-1.82722c-0.10226,-0.17025 -0.28375,-0.38582 -0.54484,-0.63548c-0.70366,-0.60158 -1.4753,-0.90799 -2.31511,-0.90799h-0.10207c-0.85125,0 -1.64554,0.31783 -2.36063,0.95332c-0.28375,0.29517 -0.47666,0.54484 -0.60139,0.76041zM301.02259,177.19426c-0.73775,0.70346 -1.1009,1.5888 -1.1009,2.66684v3.6543h0.97598v-3.77904c0,-0.73775 0.29517,-1.38465 0.88514,-1.91806c0.49952,-0.39725 1.04416,-0.59016 1.63431,-0.59016c0.76041,0 1.41855,0.30641 1.97461,0.93065c0.37459,0.48808 0.55607,1.01006 0.55607,1.57756v2.89384c0.64691,-0.63551 0.97598,-1.62286 0.97598,-2.95059v-0.03408c0,-0.70366 -0.24966,-1.38465 -0.73755,-2.05422c-0.23843,-0.28355 -0.46542,-0.51056 -0.65833,-0.65814c-0.64671,-0.454 -1.33913,-0.681 -2.05402,-0.681h-0.10207c-0.86267,0 -1.64554,0.31783 -2.3492,0.94208zM250.39595,177.68215c0.82845,-0.51074 1.65692,-0.77164 2.49671,-0.77164c1.04408,0 1.94062,0.43114 2.68964,1.28239c0.24968,0.28375 0.44261,0.5334 0.59014,0.74898c0.39721,0.59016 0.74902,1.2144 1.03272,1.88389l2.57616,5.51548c0.05675,0.10214 0.59016,1.237 1.60022,3.40461h0.01124c0.23843,-0.52204 1.35057,-2.90527 3.34784,-7.1497l1.13499,-2.40599c0.23823,-0.48789 0.5334,-0.98721 0.88514,-1.48653c0.454,-0.60158 0.88514,-1.03272 1.30505,-1.27115c0.54484,-0.35173 1.14622,-0.52198 1.81579,-0.52198c0.80586,0 1.61165,0.2383 2.41738,0.71489c0.15882,0.10226 0.3405,0.23843 0.54464,0.43134l0.1135,0.14739h-0.02266c-0.15882,-0.09064 -0.39725,-0.18148 -0.71489,-0.28355c-0.5334,-0.14759 -1.03272,-0.227 -1.49815,-0.227h-0.05675c-1.53204,0 -2.6895,0.74898 -3.484,2.2357c-0.12473,0.20415 -0.43114,0.80573 -0.9078,1.81574l-3.08695,6.57091l-1.80437,3.84722l-3.34792,-7.1497c-1.19162,-2.53076 -1.94064,-4.11958 -2.2584,-4.76652c-0.18158,-0.32907 -0.37451,-0.64691 -0.56744,-0.95332c-0.78305,-1.06662 -1.81579,-1.60003 -3.10955,-1.60003h-0.04538c-0.73767,0 -1.47534,0.17025 -2.213,0.49932c0,0.01124 -0.01135,0.01124 -0.0227,0.01124v-0.01124c0.15888,-0.19291 0.35182,-0.36316 0.57879,-0.51074zM287.66513,178.7604c-0.24972,0.30641 -0.37459,0.61282 -0.37459,0.91923v4.05142c0.55607,-0.07943 0.87391,-0.12483 0.96474,-0.12483v-3.80185c0,-0.26096 0.1135,-0.4425 0.3405,-0.54464c0.05675,-0.01142 0.1133,-0.02266 0.19291,-0.02266c0.24966,0 0.41991,0.13616 0.51056,0.41972v3.85864h0.91923l0.05675,-0.01133v-3.76771c0,-0.52218 -0.23823,-0.94208 -0.72632,-1.27115c-0.24966,-0.13616 -0.48789,-0.20434 -0.70346,-0.20434h-0.12493c-0.37459,0 -0.72632,0.17025 -1.05539,0.49952zM302.31621,178.74896c-0.26089,0.28375 -0.38582,0.63548 -0.38582,1.06682v3.69963h0.97598v-3.74514c0,-0.26089 0.12493,-0.43114 0.36316,-0.52198c0.05675,-0.01124 0.10226,-0.01124 0.13616,-0.01124h0.01142c0.23823,0 0.40848,0.12473 0.49932,0.38582c0.01142,0.02266 0.02266,0.05675 0.02266,0.09064v3.8019c0.29517,0 0.62424,-0.06808 0.99883,-0.21561c-0.01142,-0.0454 -0.02286,-0.10215 -0.02286,-0.17023v-3.35931c0,-0.54464 -0.2383,-0.97585 -0.71489,-1.29362c-0.23843,-0.14759 -0.48808,-0.21577 -0.72632,-0.21577h-0.12493c-0.36316,0 -0.70346,0.15901 -1.03272,0.48808zM250.02145,179.05537c0.56744,-0.26109 1.12353,-0.39725 1.66826,-0.39725c0.8852,0 1.7023,0.35193 2.46266,1.05539c0.44261,0.454 0.8171,1.0215 1.13488,1.71374c1.50936,3.20033 3.3592,7.13834 5.53816,11.81401c0.35181,0.76036 0.54472,1.15757 0.56738,1.19161c1.48672,-3.22303 3.21168,-6.90001 5.16363,-11.04229c0.63567,-1.37318 1.04416,-2.22435 1.23706,-2.56481c0.15895,-0.28376 0.37459,-0.59014 0.64691,-0.91915c0.30641,-0.30661 0.51074,-0.49952 0.63548,-0.57892c0.63567,-0.44257 1.30524,-0.66957 2.02013,-0.66957c0.74898,0 1.48672,0.23843 2.20162,0.72632c0.1135,0.07941 0.19298,0.14752 0.23843,0.20434v0.01124c-0.55607,-0.19291 -1.1009,-0.29498 -1.61165,-0.29498c-1.32771,0 -2.39453,0.64691 -3.17759,1.92929c-0.18154,0.29507 -0.40855,0.76036 -0.681,1.39589c-1.2483,2.70099 -2.71216,5.84459 -4.40322,9.41942c-1.20298,2.53076 -1.82722,3.82452 -1.86111,3.89262c-0.1135,0.13618 -0.23843,0.20428 -0.38601,0.20428h-0.05656c-0.23841,0 -0.40863,-0.17023 -0.53348,-0.51069c-0.94195,-1.952 -1.98602,-4.16498 -3.13223,-6.62766c-1.36185,-2.87122 -2.50808,-5.32255 -3.43868,-7.37666c-0.80575,-1.55486 -1.94062,-2.3265 -3.41596,-2.3265c-0.51069,0 -1.04408,0.10207 -1.60016,0.29498v-0.01124c0.22698,-0.21557 0.48799,-0.38582 0.78307,-0.5334zM249.35186,180.62151c0.46531,-0.17025 0.91925,-0.26109 1.36185,-0.26109c1.14622,0 2.04277,0.59019 2.70099,1.7818c0.11348,0.21563 0.61284,1.2824 1.49803,3.21168c1.14621,2.43998 2.61019,5.56088 4.4033,9.35135c0.39719,0.87385 0.68092,1.47534 0.87385,1.80444c0.32911,0.39721 0.72632,0.59014 1.19167,0.59014c0.48789,0 0.89657,-0.21563 1.22564,-0.63554c0.26089,-0.51069 0.91923,-1.88389 1.95195,-4.09687c1.75904,-3.68834 3.32518,-7.03621 4.70963,-10.05496c0.66957,-1.30511 1.60022,-1.95203 2.81462,-1.95203c0.66957,0 1.35037,0.20434 2.01994,0.60155c0.14759,0.09078 0.26109,0.18156 0.3405,0.28371h-0.01124c-0.46542,-0.20428 -0.90799,-0.30641 -1.30524,-0.30641h-0.07941c-0.87391,0 -1.69086,0.41989 -2.42861,1.24835c-0.29498,0.34046 -0.49932,0.68092 -0.62424,1.01003c-1.19155,2.55346 -2.45127,5.25445 -3.79041,8.10299l-2.62152,5.53816c-0.09084,0.17023 -0.26109,0.38586 -0.49932,0.62418c-0.48808,0.44259 -1.06682,0.65822 -1.71372,0.65822c-0.71495,0 -1.33912,-0.27238 -1.86116,-0.82845c-0.20428,-0.23833 -0.35183,-0.488 -0.44261,-0.72632c-1.40724,-2.96202 -2.56481,-5.41335 -3.46136,-7.33127c-0.8398,-1.75904 -1.83849,-3.90397 -2.98472,-6.41203c-0.10214,-0.21562 -0.31776,-0.49934 -0.64687,-0.85114c-0.71496,-0.69227 -1.45263,-1.03272 -2.2357,-1.03272h-0.10213c-0.40855,0 -0.83981,0.10213 -1.30511,0.31776v-0.0227c0.26102,-0.23832 0.60148,-0.4426 1.02138,-0.61282zM248.87522,182.08547c0.24967,-0.06809 0.488,-0.10213 0.71496,-0.10213c0.8852,0 1.63421,0.51069 2.2584,1.52074c0.03405,0.01133 0.19293,0.34046 0.47664,0.96463l5.3112,11.33737c0.55609,1.20295 0.9079,1.87252 1.05543,2.02007c0.32911,0.35181 0.55609,0.54473 0.65822,0.60147c0.62418,0.4426 1.29375,0.65823 2.03148,0.65823h0.0339c0.80586,0 1.54353,-0.27237 2.21304,-0.81711c0.24966,-0.22698 0.40867,-0.39721 0.48808,-0.49934c0.17025,-0.23833 0.31764,-0.46529 0.43114,-0.69227l3.77918,-8.09164c1.40731,-3.0074 2.26979,-4.83454 2.5762,-5.45873c0.01124,0 0.07941,-0.11348 0.227,-0.32911c0.57873,-0.80575 1.27096,-1.21431 2.06545,-1.21431c0.71496,0 1.38452,0.32911 2.0087,0.98732c0.21557,0.27238 0.37459,0.51071 0.454,0.72632c1.46387,3.1209 2.20162,4.69838 2.20162,4.70971l2.33777,4.99344c0.39725,0.73767 0.59016,1.46398 0.59016,2.17895v0.09078c0,1.01004 -0.3405,1.94064 -1.0213,2.81449c-0.29517,0.32911 -0.52218,0.54474 -0.69242,0.66957c-0.31764,0.23833 -0.58996,0.40855 -0.82839,0.51069c-0.62424,0.30642 -1.25973,0.45395 -1.88397,0.45395h-0.12473c-0.85125,0 -1.6682,-0.24967 -2.45127,-0.76036c-0.74917,-0.51069 -1.30524,-1.21431 -1.67963,-2.09951l-3.2572,-6.95676h-0.01124l-3.06429,6.55955c-0.32907,0.72632 -0.57873,1.19161 -0.72632,1.40724c-0.10207,0.14753 -0.27232,0.34046 -0.53322,0.60148c-0.29517,0.28372 -0.54484,0.47664 -0.76041,0.59013c-0.73775,0.4426 -1.52081,0.65823 -2.37186,0.65823c-1.14627,0 -2.15631,-0.38586 -3.04151,-1.16892c-0.30642,-0.30642 -0.52205,-0.55609 -0.64687,-0.74901c-0.19293,-0.30642 -0.36316,-0.62418 -0.49936,-0.94194l-3.24573,-6.90001v-0.0454h-0.0227c-0.05673,0.13618 -1.20295,2.57616 -3.42731,7.31993c-0.12483,0.29506 -0.38586,0.65822 -0.76036,1.07813c-0.35181,0.35181 -0.60147,0.56743 -0.73767,0.62418c-0.47664,0.35181 -1.08948,0.60148 -1.84982,0.73767c-0.23833,0.03405 -0.44261,0.04539 -0.60149,0.04539h-0.11348c-1.02139,0 -1.96334,-0.34046 -2.82584,-1.03273c-0.37451,-0.35181 -0.60148,-0.57878 -0.65823,-0.69227c-0.21562,-0.28372 -0.37451,-0.5334 -0.47664,-0.72631c-0.32911,-0.65824 -0.488,-1.31645 -0.488,-1.97469v-0.11348c0,-0.71496 0.20428,-1.45263 0.60148,-2.213c2.21299,-4.73242 3.40461,-7.26317 3.5635,-7.59228c0.65822,-1.42993 1.04408,-2.24705 1.16893,-2.45133c0.35181,-0.57877 0.87385,-0.99868 1.55476,-1.237zM243.12143,194.762c-0.0681,0.30641 -0.10214,0.59012 -0.10214,0.87385c0,0.94195 0.35181,1.77039 1.04409,2.48536c0.40854,0.40855 0.96463,0.70362 1.65689,0.89655c0.26102,0.04539 0.49935,0.06809 0.71499,0.06809h0.10213c0.71496,0 1.40724,-0.22697 2.05412,-0.69227c0.30641,-0.26102 0.52204,-0.488 0.65822,-0.69227c0.20428,-0.27236 0.35181,-0.53339 0.44261,-0.77169l3.67697,-7.83061c-0.35181,-0.74902 -0.53339,-1.12353 -0.53339,-1.13488l-2.63289,5.60626c-0.97599,2.09951 -1.49803,3.20033 -1.55478,3.31383c-0.29506,0.51069 -0.76035,0.89654 -1.39589,1.13488c-0.27238,0.07943 -0.51069,0.11348 -0.71496,0.11348h-0.10213c-0.72632,0 -1.36185,-0.30641 -1.89524,-0.9079c-0.37451,-0.48799 -0.56744,-1.02138 -0.56744,-1.58881v-0.01135c0,-0.44261 0.12483,-0.8852 0.38586,-1.35051l3.31383,-7.0589l1.96333,-4.21038h-0.0227c-0.52204,0 -0.98735,0.27238 -1.39589,0.80577c-0.1135,0.19293 -0.38586,0.76036 -0.82847,1.72499c-2.20165,4.67568 -3.48405,7.39937 -3.83586,8.17107c-0.19293,0.37451 -0.32911,0.72632 -0.43125,1.05544zM274.55733,183.82184c-0.39718,-0.54474 -0.86247,-0.81712 -1.39589,-0.81712h-0.02266l3.76774,8.04624c1.1009,2.32648 1.69086,3.58619 1.75904,3.77912c0.07941,0.28373 0.12493,0.52204 0.12493,0.73767v0.12483c0,0.57879 -0.21577,1.11217 -0.63567,1.62286c-0.28375,0.28373 -0.5334,0.47666 -0.74898,0.55609c-0.36316,0.17023 -0.71489,0.26103 -1.04416,0.26103h-0.10207c-0.55607,0 -1.08948,-0.19293 -1.5888,-0.59014c-0.24966,-0.23831 -0.40848,-0.41991 -0.46523,-0.54474c-0.10226,-0.15888 -0.3405,-0.63551 -0.70366,-1.42993c-1.46406,-3.1209 -2.65561,-5.66301 -3.55217,-7.60363c-0.01142,0 -0.10207,0.19293 -0.27232,0.56744l-0.27251,0.56744c2.37205,5.03882 3.57503,7.62633 3.63159,7.75116c0.15895,0.35181 0.30654,0.62418 0.44276,0.81712c0.10207,0.14753 0.27232,0.31776 0.49932,0.53338c0.6808,0.59013 1.42997,0.8852 2.25836,0.8852h0.12473c0.74904,0 1.46406,-0.26102 2.14506,-0.78306c0.29505,-0.27237 0.48795,-0.47665 0.57873,-0.61284c0.44257,-0.64687 0.66957,-1.31644 0.66957,-2.02007v-0.07943c0,-0.55609 -0.15882,-1.13488 -0.46523,-1.72501c-2.22446,-4.75509 -3.42744,-7.30855 -3.59769,-7.66036c-0.64671,-1.40725 -1.0213,-2.20165 -1.1348,-2.38323zM250.60023,183.52676c-0.03405,-0.02268 -0.0454,-0.03403 -0.0454,-0.04538l-3.42731,7.2972c-1.27106,2.70101 -1.952,4.15365 -2.03142,4.34657c-0.05675,0.17023 -0.0908,0.34046 -0.0908,0.52204c0,0.46529 0.20428,0.85114 0.60149,1.18026c0.28371,0.18158 0.54474,0.27238 0.80577,0.27238h0.12483c0.32911,0 0.65822,-0.1362 0.97599,-0.40855c0.19293,-0.21562 0.30641,-0.3972 0.34046,-0.54474c1.44129,-3.0301 2.1676,-4.59624 2.20165,-4.68702l2.20163,-4.68702v-0.0227c-0.34046,-0.73767 -0.51069,-1.10083 -0.51069,-1.11217c-0.0454,0.05673 -0.54474,1.11217 -1.48669,3.14358l-3.34786,7.12699c-0.11348,0.15888 -0.24967,0.23833 -0.40855,0.23833h-0.05675c-0.20426,0 -0.36316,-0.12483 -0.46529,-0.37451c-0.01135,-0.07945 -0.0227,-0.12483 -0.0227,-0.13618c0,-0.10215 0.07945,-0.29508 0.22698,-0.59014l3.75641,-8.01219c0.8171,-1.73636 1.22566,-2.61021 1.22566,-2.62156c-0.13618,-0.30641 -0.32911,-0.60147 -0.56742,-0.8852zM273.72894,186.68171c-0.9874,-2.11085 -1.48672,-3.17763 -1.50938,-3.20033c-0.21564,0.24967 -0.40861,0.53339 -0.57892,0.85114c0,0.01135 -0.01124,0.0454 -0.0339,0.09078l3.41582,7.28587l1.74781,3.73373c0.02266,0.05673 0.03408,0.12483 0.03408,0.19293c0,0.21563 -0.1135,0.38586 -0.35193,0.48799c-0.05675,0.01135 -0.10207,0.0227 -0.13616,0.0227h-0.04532c-0.23843,0 -0.40867,-0.15888 -0.52218,-0.47666l-3.20025,-6.82056l-1.50938,-3.21168c-0.03408,0.0454 -0.20434,0.41989 -0.5334,1.12353c2.5762,5.50411 3.88124,8.2732 3.90391,8.30725c0.35193,0.78307 0.5675,1.237 0.65833,1.38453c0.19291,0.28372 0.47659,0.488 0.85105,0.61284c0.12493,0.0227 0.23843,0.03405 0.31783,0.03405h0.12473c0.38601,0 0.73775,-0.17023 1.06682,-0.51071c0.227,-0.28371 0.3405,-0.59012 0.3405,-0.89654v-0.10213c0,-0.23833 -0.09084,-0.53339 -0.27232,-0.87385zM307.80911,183.99207c0.12473,-0.19293 0.18148,-0.32911 0.18148,-0.38586h0.02266c0,0.21562 -0.09077,0.51069 -0.27232,0.8852c-0.39725,0.71496 -1.1348,1.25971 -2.20162,1.63421c-0.89657,0.28373 -1.90663,0.41991 -3.05285,0.41991h-13.40278c-1.88377,0 -3.12084,0.12483 -3.72242,0.36316c-0.09064,0.01135 -0.29498,0.10213 -0.62405,0.27236c-0.14759,0.07945 -0.31783,0.21563 -0.5334,0.41991c0.227,-0.56744 0.74898,-1.04408 1.57737,-1.42993c0.94208,-0.44261 2.2357,-0.65824 3.85858,-0.65824h12.69932c2.82566,0 4.65289,-0.51069 5.47004,-1.52071zM307.71827,186.3753c0.13622,-0.15888 0.227,-0.31778 0.27232,-0.47666h0.02266c0,0.22698 -0.1135,0.52204 -0.32907,0.8852c-0.39725,0.60149 -1.11214,1.0668 -2.15629,1.3959c-0.9078,0.26101 -1.87255,0.38586 -2.90527,0.38586c-3.938,-0.01135 -7.62633,-0.01135 -11.08767,-0.01135h-1.74762c-2.48536,0 -4.11967,0.24966 -4.89131,0.74902c-0.32907,0.19291 -0.54484,0.45394 -0.66957,0.80575c-0.01142,0.03405 -0.01142,0.0454 -0.01142,0.05675h-0.02266v-0.05675c0,-0.38586 0.17025,-0.78307 0.52198,-1.19161c0.85125,-0.94195 2.45147,-1.40725 4.8119,-1.40725h3.39335c0.80573,0 1.74762,0 2.81443,0.01135c0.28375,-0.01135 0.454,-0.01135 0.51074,-0.01135c1.23687,0.01135 2.3492,0.01135 3.32518,0.01135h2.40595c1.91787,0 3.30232,-0.11348 4.1648,-0.35181c0.41991,-0.12483 0.76041,-0.24966 1.01006,-0.37451c0.18168,-0.07943 0.37459,-0.22696 0.5675,-0.41989zM307.58211,188.81526c0.10207,-0.06808 0.24966,-0.18158 0.41991,-0.35181v0.01135c-0.38582,0.69227 -1.14622,1.22566 -2.28122,1.62286c-0.91923,0.30643 -2.05402,0.45396 -3.40459,0.45396h-12.39272c-1.64554,0 -2.87118,0.12483 -3.66567,0.36316c-0.43114,0.12483 -0.77164,0.24966 -1.03272,0.39719c-0.23823,0.12485 -0.454,0.28373 -0.64691,0.488c-0.19291,0.19293 -0.31764,0.39721 -0.36316,0.61282v0.0227h-0.02266v-0.03405c0,-0.46529 0.19291,-0.94192 0.59016,-1.42993c0.454,-0.49934 1.1348,-0.87385 2.03136,-1.13486c0.73775,-0.21563 1.69106,-0.31778 2.83729,-0.31778h13.30071c1.88377,0 3.21155,-0.13618 3.98332,-0.40854c0.24966,-0.0908 0.46523,-0.19293 0.64691,-0.29508zM306.95786,191.16444c0.32913,-0.07943 0.62424,-0.19293 0.88533,-0.34046l0.10207,-0.05673c0.01124,0.01133 0.02266,0.01133 0.02266,0.02268v4.56218c0,0.74902 -0.10207,1.3732 -0.30641,1.86119c-0.1135,0.29506 -0.27232,0.60149 -0.47666,0.9079c-0.12473,0.20428 -0.32907,0.4426 -0.60139,0.72632c-0.30641,0.28372 -0.62424,0.51069 -0.93065,0.69227c-0.71496,0.38586 -1.44127,0.57878 -2.17895,0.57878h-0.1135c-1.05539,0 -2.02013,-0.36316 -2.9167,-1.08948c-0.30641,-0.29506 -0.51056,-0.49934 -0.58996,-0.62418c-0.43134,-0.55609 -0.72632,-1.18026 -0.87391,-1.84983c-0.05675,-0.32913 -0.09084,-0.62418 -0.09084,-0.88521v-3.10953h-5.57211v2.95065c0,1.52074 -0.61301,2.75775 -1.82722,3.72238c-0.82845,0.59014 -1.71365,0.8852 -2.65561,0.8852h-0.10207c-1.12356,0 -2.13363,-0.3972 -3.04143,-1.20296c-0.37459,-0.38586 -0.61301,-0.66957 -0.70366,-0.83981c-0.47666,-0.72632 -0.71508,-1.46398 -0.71508,-2.20165v-0.07943c0,-0.56745 0.14752,-1.20298 0.44257,-1.90659c0.12493,-0.29506 0.30661,-0.59012 0.5334,-0.87385c0.32927,-0.38586 0.59016,-0.63551 0.79449,-0.76036c0.23823,-0.17023 0.44257,-0.28371 0.61282,-0.35181c0.55613,-0.24967 1.08954,-0.37451 1.60022,-0.37451h5.51536c2.16772,0 4.63042,0 7.3881,0.01135c3.08675,0 5.01604,-0.12483 5.79911,-0.37451zM306.91254,191.6411c-0.227,0.12483 -0.54484,0.24966 -0.96474,0.38586v3.58619c0,0.74902 -0.31764,1.39589 -0.94189,1.94062c-0.48789,0.37451 -1.01006,0.56744 -1.5888,0.56744c-0.78307,0 -1.44121,-0.32911 -1.99747,-0.97599c-0.35173,-0.47664 -0.52198,-0.99868 -0.52198,-1.56612v-3.01875h-0.97598v3.01875c0,0.91925 0.31783,1.72501 0.94189,2.41728c0.3405,0.32911 0.60152,0.53338 0.78307,0.61283c0.55607,0.31777 1.12356,0.47664 1.72515,0.47664h0.07941c0.87371,0 1.67963,-0.31777 2.39453,-0.96464c0.71489,-0.72632 1.07805,-1.56612 1.07805,-2.50806v-3.97204zM304.90384,192.28796c-0.35193,0.0681 -0.66957,0.11348 -0.96474,0.14753v3.17765c0,0.19293 -0.1135,0.35181 -0.32907,0.45394c-0.05675,0.03405 -0.1135,0.0454 -0.19291,0.0454c-0.23823,0 -0.40848,-0.13618 -0.49932,-0.39721c-0.01142,-0.03405 -0.01142,-0.07943 -0.01142,-0.12483v-3.0528c-0.47666,0.01135 -0.80573,0.0227 -0.97598,0.0227v2.962c0,0.65824 0.29517,1.13488 0.87391,1.4186c0.19291,0.09079 0.37446,0.13618 0.54464,0.13618h0.12493c0.38582,0 0.73775,-0.17023 1.06682,-0.49934c0.24966,-0.28373 0.37439,-0.62418 0.37439,-1.01004v-3.27978zM292.28412,195.66987v-3.10953h-0.97617v3.0982c0,0.56742 -0.21557,1.11216 -0.64671,1.62286c-0.5334,0.55609 -1.15765,0.8398 -1.87255,0.8398c-0.72632,0 -1.36199,-0.29506 -1.90663,-0.87385c-0.41991,-0.488 -0.63548,-1.05543 -0.63548,-1.71366v-2.08815c-0.17025,0.19293 -0.24966,0.28371 -0.24966,0.28371c-0.17025,0.22698 -0.29517,0.46531 -0.39725,0.72632c-0.06818,0.14753 -0.13616,0.38586 -0.21577,0.70362c-0.05656,0.34046 -0.07941,0.59014 -0.07941,0.73767c0,0.01135 0,0.01135 -0.01124,0.0227c0.05675,0.40855 0.13616,0.76036 0.26089,1.04408c0.09084,0.21563 0.20434,0.43126 0.35193,0.65824c0.10207,0.14753 0.24966,0.31776 0.46523,0.52204c0.38582,0.34046 0.77183,0.57878 1.16888,0.71496c0.40867,0.14753 0.81715,0.22697 1.2144,0.22697h0.07941c0.94189,0 1.78171,-0.36316 2.49679,-1.08947c0.34037,-0.37451 0.59003,-0.78307 0.74898,-1.22567c0.13616,-0.39719 0.20434,-0.76035 0.20434,-1.10083zM288.25529,192.56035c-0.27251,0 -0.59016,0.06808 -0.96474,0.19293v2.89392c0,0.37451 0.17025,0.73767 0.49932,1.06677c0.30641,0.23831 0.61282,0.36316 0.93065,0.36316h0.12493c0.39705,0 0.76021,-0.18158 1.08948,-0.53339c0.22681,-0.29508 0.34031,-0.60149 0.34031,-0.93059v-3.0528h-0.97598v2.91662c0,0.28371 -0.09064,0.47664 -0.26089,0.55607c-0.05675,0.05675 -0.14759,0.07945 -0.24966,0.07945h-0.02286c-0.21557,0 -0.36316,-0.11348 -0.46523,-0.35181c-0.03408,-0.05675 -0.04532,-0.12483 -0.04532,-0.19293z"
                        data-paper-data="{&quot;isPathIcon&quot;:true}" fill="#009ace" id="element-id-33019"></path>
                </g>
            </g>
        </g>

        <rect data-element-id="element-id-72095" stroke-width="2" fill="transparent"
            class="invisible-element-box grouping-element" x="202" y="115" width="147" height="145"
            data-element-name="isIcon"></rect>
        <rect data-element-id="element-id-33019" stroke-width="2" fill="transparent"
            class="invisible-element-box individual-element" x="202" y="115" width="147" height="145"></rect>
        <rect data-element-id="element-id-99779" stroke-width="2" fill="transparent"
            class="invisible-element-box grouping-element" x="92" y="289" width="365" height="44"
            data-element-name="isPrimaryText"></rect>
        <rect data-element-id="element-id-75793" stroke-width="2" fill="transparent"
            class="invisible-element-box grouping-element" x="104" y="344" width="342" height="11"
            data-element-name="isSecondaryText"></rect>
        <rect data-element-id="element-id-98448" stroke-width="2" fill="transparent"
            class="invisible-element-box individual-element" x="92" y="289" width="44" height="44"></rect>
        <rect data-element-id="element-id-93082" stroke-width="2" fill="transparent"
            class="invisible-element-box individual-element" x="141" y="289" width="44" height="44"></rect>
        <rect data-element-id="element-id-60083" stroke-width="2" fill="transparent"
            class="invisible-element-box individual-element" x="190" y="289" width="44" height="44"></rect>
        <rect data-element-id="element-id-96900" stroke-width="2" fill="transparent"
            class="invisible-element-box individual-element" x="326" y="289" width="36" height="44"></rect>
        <rect data-element-id="element-id-74312" stroke-width="2" fill="transparent"
            class="invisible-element-box individual-element" x="389" y="289" width="34" height="44"></rect>
        <rect data-element-id="element-id-81512" stroke-width="2" fill="transparent"
            class="invisible-element-box individual-element" x="255" y="289" width="31" height="44"></rect>
        <rect data-element-id="element-id-95686" stroke-width="2" fill="transparent"
            class="invisible-element-box individual-element" x="290" y="289" width="31" height="44"></rect>
        <rect data-element-id="element-id-6073" stroke-width="2" fill="transparent"
            class="invisible-element-box individual-element" x="426" y="289" width="31" height="44"></rect>
        <rect data-element-id="element-id-25069" stroke-width="2" fill="transparent"
            class="invisible-element-box individual-element" x="365" y="289" width="29" height="44"></rect>
        <rect data-element-id="element-id-24559" stroke-width="2" fill="transparent"
            class="invisible-element-box individual-element" x="218" y="344" width="11" height="11"></rect>
        <rect data-element-id="element-id-11470" stroke-width="2" fill="transparent"
            class="invisible-element-box individual-element" x="285" y="344" width="11" height="11"></rect>
        <rect data-element-id="element-id-69608" stroke-width="2" fill="transparent"
            class="invisible-element-box individual-element" x="353" y="344" width="11" height="11"></rect>
        <rect data-element-id="element-id-83407" stroke-width="2" fill="transparent"
            class="invisible-element-box individual-element" x="374" y="344" width="11" height="11"></rect>
        <rect data-element-id="element-id-41478" stroke-width="2" fill="transparent"
            class="invisible-element-box individual-element" x="139" y="344" width="10" height="11"></rect>
        <rect data-element-id="element-id-4354" stroke-width="2" fill="transparent"
            class="invisible-element-box individual-element" x="266" y="344" width="10" height="11"></rect>
        <rect data-element-id="element-id-62564" stroke-width="2" fill="transparent"
            class="invisible-element-box individual-element" x="324" y="344" width="10" height="11"></rect>
        <rect data-element-id="element-id-36617" stroke-width="2" fill="transparent"
            class="invisible-element-box individual-element" x="104" y="344" width="9" height="11"></rect>
        <rect data-element-id="element-id-42841" stroke-width="2" fill="transparent"
            class="invisible-element-box individual-element" x="172" y="344" width="9" height="11"></rect>
        <rect data-element-id="element-id-63164" stroke-width="2" fill="transparent"
            class="invisible-element-box individual-element" x="189" y="344" width="9" height="11"></rect>
        <rect data-element-id="element-id-95241" stroke-width="2" fill="transparent"
            class="invisible-element-box individual-element" x="238" y="344" width="9" height="11"></rect>
        <rect data-element-id="element-id-10815" stroke-width="2" fill="transparent"
            class="invisible-element-box individual-element" x="305" y="344" width="9" height="11"></rect>
        <rect data-element-id="element-id-31573" stroke-width="2" fill="transparent"
            class="invisible-element-box individual-element" x="123" y="344" width="8" height="11"></rect>
        <rect data-element-id="element-id-20403" stroke-width="2" fill="transparent"
            class="invisible-element-box individual-element" x="394" y="344" width="8" height="11"></rect>
        <rect data-element-id="element-id-98038" stroke-width="2" fill="transparent"
            class="invisible-element-box individual-element" x="438" y="344" width="8" height="11"></rect>
        <rect data-element-id="element-id-93987" stroke-width="2" fill="transparent"
            class="invisible-element-box individual-element" x="158" y="344" width="7" height="11"></rect>
        <rect data-element-id="element-id-49511" stroke-width="2" fill="transparent"
            class="invisible-element-box individual-element" x="422" y="344" width="7" height="11"></rect>
        <rect data-element-id="element-id-2903" stroke-width="2" fill="transparent"
            class="invisible-element-box individual-element" x="411" y="344" width="1" height="11"></rect>
    </svg>